<svg xmlns="http://www.w3.org/2000/svg" width="23" height="23" viewBox="0 0 23 23">
  <g id="Order_details_icon" data-name="Order details icon" transform="translate(-30 -706)">
    <path id="Path_12493" data-name="Path 12493" d="M11.5,0A11.5,11.5,0,1,1,0,11.5,11.5,11.5,0,0,1,11.5,0Z" transform="translate(30 706)" fill="#00cab1"/>
    <path id="draft_orders_FILL0_wght400_GRAD0_opsz48" d="M12.655,9.854,11.643,8.842,7.914,12.571a.514.514,0,0,0-.118.169.5.5,0,0,0-.034.186v.557a.259.259,0,0,0,.253.253h.557a.5.5,0,0,0,.186-.034.514.514,0,0,0,.169-.118Zm.337-.337.675-.675a.479.479,0,0,0,.143-.329.42.42,0,0,0-.127-.329L13.33,7.83A.479.479,0,0,0,13,7.686a.42.42,0,0,0-.329.127L11.98,8.5ZM10.749,17.5a6.53,6.53,0,0,1-2.615-.531,6.8,6.8,0,0,1-3.6-3.6,6.741,6.741,0,0,1,0-5.247A6.744,6.744,0,0,1,5.982,5.974,6.918,6.918,0,0,1,8.133,4.531a6.741,6.741,0,0,1,5.247,0,6.738,6.738,0,0,1,3.585,3.585,6.741,6.741,0,0,1,0,5.247,6.918,6.918,0,0,1-1.443,2.151,6.744,6.744,0,0,1-2.143,1.451A6.571,6.571,0,0,1,10.749,17.5Zm0-1.012a5.52,5.52,0,0,0,4.066-1.679,5.542,5.542,0,0,0,1.67-4.058,5.7,5.7,0,0,0-5.736-5.736,5.542,5.542,0,0,0-4.058,1.67,5.52,5.52,0,0,0-1.679,4.066,5.528,5.528,0,0,0,1.679,4.058A5.528,5.528,0,0,0,10.749,16.485ZM10.749,10.749Z" transform="translate(30.751 706.251)" fill="#fff"/>
  </g>
</svg>
