<svg xmlns="http://www.w3.org/2000/svg" width="18.33" height="18.33" viewBox="0 0 18.33 18.33">
  <path id="orders_icon" data-name="orders icon" d="M15.754,11.951l-1.375-1.375L9.316,15.64a.7.7,0,0,0-.16.229.673.673,0,0,0-.046.252v.756a.352.352,0,0,0,.344.344h.756a.673.673,0,0,0,.252-.046.7.7,0,0,0,.229-.16Zm.458-.458.917-.917a.65.65,0,0,0,.195-.447.57.57,0,0,0-.172-.447L16.671,9.2a.65.65,0,0,0-.447-.195.57.57,0,0,0-.447.172l-.939.939ZM13.165,22.33a8.868,8.868,0,0,1-3.551-.722,9.234,9.234,0,0,1-4.892-4.892,9.155,9.155,0,0,1,0-7.126,9.159,9.159,0,0,1,1.97-2.91A9.4,9.4,0,0,1,9.614,4.722a9.155,9.155,0,0,1,7.126,0,9.151,9.151,0,0,1,4.869,4.869,9.155,9.155,0,0,1,0,7.126,9.4,9.4,0,0,1-1.959,2.921,9.159,9.159,0,0,1-2.91,1.97A8.925,8.925,0,0,1,13.165,22.33Zm0-1.375a7.5,7.5,0,0,0,5.522-2.28,7.526,7.526,0,0,0,2.268-5.51,7.515,7.515,0,0,0-2.268-5.522,7.515,7.515,0,0,0-5.522-2.268,7.526,7.526,0,0,0-5.51,2.268,7.5,7.5,0,0,0-2.28,5.522,7.507,7.507,0,0,0,2.28,5.51A7.507,7.507,0,0,0,13.165,20.955ZM13.165,13.165Z" transform="translate(-4 -4)" fill="#aaa"/>
</svg>
