<svg xmlns="http://www.w3.org/2000/svg" width="22.912" height="18.33" viewBox="0 0 22.912 18.33">
  <path id="subscription_icon" data-name="subscription icon" d="M5.718,26.33a1.649,1.649,0,0,1-1.2-.516A1.649,1.649,0,0,1,4,24.612V20.23a3.025,3.025,0,0,0,1.761-1.1,3.053,3.053,0,0,0,.7-1.962,3.11,3.11,0,0,0-.7-1.976A2.869,2.869,0,0,0,4,14.1V9.718a1.649,1.649,0,0,1,.516-1.2A1.649,1.649,0,0,1,5.718,8H25.194a1.762,1.762,0,0,1,1.718,1.718V14.1a2.812,2.812,0,0,0-1.747,1.088,3.15,3.15,0,0,0-.687,1.976,3.092,3.092,0,0,0,.687,1.962,2.962,2.962,0,0,0,1.747,1.1v4.382a1.762,1.762,0,0,1-1.718,1.718Zm0-1.718H25.194V21.49a6.181,6.181,0,0,1-1.733-1.847,4.724,4.724,0,0,1,0-4.955,6.181,6.181,0,0,1,1.733-1.847V9.718H5.718V12.84a6.348,6.348,0,0,1,1.747,1.847,4.644,4.644,0,0,1,0,4.955A6.348,6.348,0,0,1,5.718,21.49Zm9.738-5.127,1.89,1.489a.362.362,0,0,0,.516.029.406.406,0,0,0,.172-.516l-.745-2.349,1.89-1.575a.435.435,0,0,0,.143-.487.377.377,0,0,0-.4-.286H16.659l-.8-2.32a.424.424,0,0,0-.8,0l-.8,2.32H11.991a.377.377,0,0,0-.4.286.435.435,0,0,0,.143.487l1.89,1.575-.745,2.349A.406.406,0,0,0,13.05,21a.362.362,0,0,0,.516-.029ZM15.456,17.165Z" transform="translate(-4 -8)" fill="#aaa"/>
</svg>
