<svg xmlns="http://www.w3.org/2000/svg" width="19.399" height="18.33" viewBox="0 0 19.399 18.33">
  <path id="wallet_icon" data-name="wallet icon" d="M19.544,16.794a1.56,1.56,0,0,0,1.133-.5,1.588,1.588,0,0,0,.5-1.158,1.519,1.519,0,0,0-.5-1.12,1.569,1.569,0,0,0-2.266,0,1.519,1.519,0,0,0-.5,1.12,1.588,1.588,0,0,0,.5,1.158A1.56,1.56,0,0,0,19.544,16.794ZM7.528,21.453v0Zm0,2.877a1.48,1.48,0,0,1-1.057-.458A1.447,1.447,0,0,1,6,22.8V7.528a1.461,1.461,0,0,1,.471-1.057A1.461,1.461,0,0,1,7.528,6H22.8a1.447,1.447,0,0,1,1.069.471,1.48,1.48,0,0,1,.458,1.057v3.411H22.8V7.528H7.528V22.8H22.8V19.417H24.33V22.8A1.566,1.566,0,0,1,22.8,24.33Zm9.114-4.4a1.858,1.858,0,0,1-1.375-.509,1.824,1.824,0,0,1-.509-1.349V12.288a1.814,1.814,0,0,1,.509-1.362,1.885,1.885,0,0,1,1.375-.5h6.874a1.885,1.885,0,0,1,1.375.5,1.814,1.814,0,0,1,.509,1.362v5.779a1.824,1.824,0,0,1-.509,1.349,1.858,1.858,0,0,1-1.375.509Z" transform="translate(-6 -6)" fill="#aaa"/>
</svg>
